# xmcd
#
# Track frame offsets:
#	150
#	11599
#	23965
#	35680
#	46471
#	58400
#	69020
#	82038
#	96219
#	106453
#	116911
#	128725
#	140633
#	153621
#	167364
#	181638
#	193884
#	204454
#	216031
#	228415
#	242978
#	255668
#	268907
#	279678
#	292287
#	302484
#
# Disc length: 4223 seconds
#
# Revision: 1
# Processed by: cddbd v1.5.2PL0 Copyright (c) Steve Scherf et al.
# Submitted via: audiograbber 1.83.01
#
DISCID=8c107d1a
DTITLE=Various Artist - Dim Lights, Thick Smoke And Hillbilly Music 1952
DYEAR=1952
DGENRE=Country
TTITLE0=Tex Ritter - High Noon (Do Not Forsake Me) (from the United Artists pic
TTITLE0=ture 'High Noon')
TTITLE1=Hank Thompson - Wild Side of Life
TTITLE2=Kitty Wells - It Wasn't God Who Made Honky Tonk Angels
TTITLE3=Johnny and Jack - Ashes of Love
TTITLE4=Eddie Arnold - Easy on The Eyes
TTITLE5=Lefty Frizzell - Give Me More, More, More (Of Your Kisses)
TTITLE6=Jimmie Dean - Bumming Around
TTITLE7=Jimmy Swan - I Had A Dream
TTITLE8=Lattie Moore - Juke Joint Johnny
TTITLE9=Bill Haley - Rock The Joint
TTITLE10=Doye O'Dell - Diesel Smoke
TTITLE11=Carl Smith - Are You Teasing Me
TTITLE12=Hank Williams - Jambalaya (On The Bayou)
TTITLE13=Webb Pierce - Wondering
TTITLE14=Jim Eanes - I Cried Again
TTITLE15=Jimmy Dickens - They Locked God Outside The Iron Curtain
TTITLE16=Hank Snow - The Gold Rush Is Over
TTITLE17=Reno and Smiley - I'm Using My Bible For A Roadmap
TTITLE18=Bill Monroe - Raw Hide
TTITLE19=Slim Whitman - Indian Love Call
TTITLE20=Slim Willet - Don't Let The Stars (Get In Your Eyes)
TTITLE21=George Morgan - Almost
TTITLE22=Big Bill Lister - There's A Tear In My Beer
TTITLE23=Webb Pierce - Back Street Affair
TTITLE24=Hank Williams - Honky Tonk Blues
TTITLE25=Red Foley - Midnight
EXTD=
EXTT0=
EXTT1=
EXTT2=
EXTT3=
EXTT4=
EXTT5=
EXTT6=
EXTT7=
EXTT8=
EXTT9=
EXTT10=
EXTT11=
EXTT12=
EXTT13=
EXTT14=
EXTT15=
EXTT16=
EXTT17=
EXTT18=
EXTT19=
EXTT20=
EXTT21=
EXTT22=
EXTT23=
EXTT24=
EXTT25=
PLAYORDER=
